<?xml version="1.0" standalone="no"?>
<!DOCTYPE svg PUBLIC "-//W3C//DTD SVG 20010904//EN"
 "http://www.w3.org/TR/2001/REC-SVG-20010904/DTD/svg10.dtd">
<svg version="1.0" xmlns="http://www.w3.org/2000/svg"
 width="512.000000pt" height="512.000000pt" viewBox="0 0 512.000000 512.000000"
 preserveAspectRatio="xMidYMid meet">

<g transform="translate(0.000000,512.000000) scale(0.100000,-0.100000)"
fill="#000000" stroke="none">
<path d="M0 2560 l0 -2560 2560 0 2560 0 0 2560 0 2560 -2560 0 -2560 0 0
-2560z m2555 586 c93 -24 167 -73 232 -152 41 -51 46 -40 -54 -110 l-52 -37
-61 56 c-74 69 -140 92 -236 84 -118 -9 -176 -57 -177 -146 -1 -96 39 -126
237 -176 212 -53 286 -98 338 -202 27 -56 32 -75 32 -141 -1 -226 -152 -362
-402 -364 -160 -2 -256 35 -364 140 -38 36 -68 71 -68 77 0 10 42 49 112 104
16 12 25 6 87 -51 81 -77 132 -98 236 -98 151 0 240 100 205 229 -16 59 -60
84 -220 126 -297 77 -389 166 -378 369 4 69 9 91 36 136 44 78 127 137 219
159 59 14 222 12 278 -3z m2078 -29 c53 -26 91 -54 131 -98 31 -33 56 -64 56
-68 0 -8 -124 -101 -136 -101 -4 0 -27 20 -50 44 -68 72 -113 90 -219 91 -72
0 -98 -4 -130 -21 -54 -28 -77 -73 -72 -141 6 -87 45 -112 246 -162 147 -36
220 -69 277 -126 126 -126 108 -364 -37 -488 -80 -69 -221 -103 -361 -87 -87
10 -146 30 -209 71 -47 30 -149 130 -149 147 0 9 123 112 135 112 4 0 26 -22
50 -48 63 -70 132 -104 222 -110 122 -8 197 26 229 104 20 48 17 113 -6 152
-26 42 -71 62 -225 102 -193 49 -285 104 -337 203 -19 35 -23 58 -23 137 0 84
3 101 27 146 26 50 85 111 130 135 70 38 133 49 254 46 117 -3 124 -4 197 -40z
m-3710 3 c83 -26 171 -90 220 -161 102 -148 135 -419 76 -629 -41 -149 -116
-248 -232 -305 -94 -46 -179 -57 -427 -53 l-195 3 -3 583 -2 582 249 0 c221 0
256 -2 314 -20z m2632 0 c159 -55 251 -158 301 -340 25 -91 26 -347 1 -440
-28 -105 -73 -184 -143 -250 -109 -101 -200 -122 -514 -118 l-205 3 -3 583 -2
582 253 0 c228 0 260 -2 312 -20z m-1665 -635 l0 -95 -235 0 -235 0 0 95 0 95
235 0 235 0 0 -95z"/>
<path d="M550 2560 l0 -410 143 0 c128 0 147 3 193 24 60 28 117 91 140 155
22 61 31 294 15 386 -23 129 -86 211 -185 240 -33 10 -94 15 -178 15 l-128 0
0 -410z"/>
<path d="M3187 2963 c-4 -3 -7 -188 -7 -410 l0 -403 139 0 c149 0 182 7 248
52 30 20 51 47 75 95 l33 68 0 195 c0 184 -1 198 -24 247 -31 69 -95 127 -162
147 -53 16 -288 23 -302 9z"/>
</g>
</svg>
